<?xml version="1.0" encoding="UTF-8"?>
<!DOCTYPE svg PUBLIC "-//W3C//DTD SVG 1.1//EN" "http://www.w3.org/Graphics/SVG/1.1/DTD/svg11.dtd">
<!-- Creator: CorelDRAW X6 -->
<svg xmlns="http://www.w3.org/2000/svg" xml:space="preserve" width="12.7031mm" height="9.524mm" version="1.1" style="shape-rendering:geometricPrecision; text-rendering:geometricPrecision; image-rendering:optimizeQuality; fill-rule:evenodd; clip-rule:evenodd"
viewBox="0 0 4003 3001"
 xmlns:xlink="http://www.w3.org/1999/xlink">
 <defs>
  <style type="text/css">
   <![CDATA[
    .fil0 {fill:#444444;fill-rule:nonzero}
   ]]>
  </style>
 </defs>
 <g id="Слой_x0020_1">
  <metadata id="CorelCorpID_0Corel-Layer"/>
  <g id="_252827376">
   <g>
    <path class="fil0" d="M571 146l-500 0c-39,0 -71,-32 -71,-73 0,-40 32,-73 71,-73l500 0c40,0 72,33 72,73 0,41 -32,73 -72,73z"/>
   </g>
   <g>
    <path class="fil0" d="M1200 2154c-30,0 -59,-20 -68,-51l-620 -2000c-12,-38 9,-79 47,-91 38,-12 79,9 91,48l619 1999c12,38 -9,80 -47,92 -7,2 -14,3 -22,3z"/>
   </g>
   <g>
    <path class="fil0" d="M3678 2197l-2453 0c-40,0 -73,-33 -73,-74 0,-40 33,-73 73,-73l2453 0c40,0 72,33 72,73 0,41 -32,74 -72,74z"/>
   </g>
   <g>
    <path class="fil0" d="M3690 2191c-3,0 -6,-1 -9,-1 -40,-5 -68,-42 -62,-82l240 -1823c6,-40 42,-68 81,-63 40,6 68,42 62,83l-240 1822c-5,37 -36,64 -72,64z"/>
   </g>
   <g>
    <path class="fil0" d="M3866 366l-2434 0c-40,0 -72,-33 -72,-73 0,-41 32,-74 72,-74l2434 0c40,0 72,33 72,74 0,40 -32,73 -72,73z"/>
   </g>
   <g>
    <path class="fil0" d="M2578 1611c-40,0 -72,-33 -72,-73l0 -587c0,-40 32,-73 72,-73 40,0 72,33 72,73l0 587c0,40 -32,73 -72,73z"/>
   </g>
   <g>
    <path class="fil0" d="M2936 1611c-39,0 -72,-33 -72,-73l0 -587c0,-40 33,-73 72,-73 40,0 73,33 73,73l0 587c0,40 -33,73 -73,73z"/>
   </g>
   <g>
    <path class="fil0" d="M3294 1611c-39,0 -71,-33 -71,-73l0 -587c0,-40 32,-73 71,-73 39,0 71,33 71,73l0 587c0,40 -32,73 -71,73z"/>
   </g>
   <g>
    <path class="fil0" d="M1503 1611c-39,0 -71,-33 -71,-73l0 -587c0,-40 32,-73 71,-73 39,0 71,33 71,73l0 587c0,40 -32,73 -71,73z"/>
   </g>
   <g>
    <path class="fil0" d="M1862 1611c-40,0 -71,-33 -71,-73l0 -587c0,-40 31,-73 71,-73 39,0 71,33 71,73l0 587c0,40 -32,73 -71,73z"/>
   </g>
   <g>
    <path class="fil0" d="M2219 1611c-40,0 -72,-33 -72,-73l0 -587c0,-40 32,-73 72,-73 40,0 72,33 72,73l0 587c0,40 -32,73 -72,73z"/>
   </g>
   <g>
    <path class="fil0" d="M1689 3001c-201,0 -365,-166 -365,-370 0,-204 164,-370 365,-370 202,0 365,166 365,370 0,204 -163,370 -365,370zm0 -594l0 0c-122,0 -221,100 -221,224 0,123 99,224 221,224 122,0 221,-101 221,-224 0,-124 -99,-224 -221,-224z"/>
   </g>
   <g>
    <path class="fil0" d="M3277 3001c-202,0 -366,-166 -366,-370 0,-204 164,-370 366,-370 201,0 365,166 365,370 0,204 -164,370 -365,370zm0 -594l0 0c-122,0 -221,100 -221,224 0,123 99,224 221,224 122,0 221,-101 221,-224 0,-124 -99,-224 -221,-224z"/>
   </g>
  </g>
 </g>
</svg>
