<?xml version="1.0" encoding="UTF-8"?>
<!DOCTYPE svg PUBLIC "-//W3C//DTD SVG 1.1//EN" "http://www.w3.org/Graphics/SVG/1.1/DTD/svg11.dtd">
<!-- Creator: CorelDRAW X6 -->
<svg xmlns="http://www.w3.org/2000/svg" xml:space="preserve" width="4.5766mm" height="5.641mm" version="1.1" style="shape-rendering:geometricPrecision; text-rendering:geometricPrecision; image-rendering:optimizeQuality; fill-rule:evenodd; clip-rule:evenodd"
viewBox="0 0 34 42"
 xmlns:xlink="http://www.w3.org/1999/xlink">
 <defs>
  <style type="text/css">
   <![CDATA[
    .fil0 {fill:#008DA9}
   ]]>
  </style>
 </defs>
 <g id="Слой_x0020_1">
  <metadata id="CorelCorpID_0Corel-Layer"/>
  <g id="_547999008">
   <g>
    <path class="fil0" d="M24 5c1,0 2,1 2,3 0,1 -1,3 -2,3 -2,0 -3,-2 -3,-3 0,-2 1,-3 3,-3z"/>
   </g>
   <g>
    <path class="fil0" d="M32 21l0 12c0,3 -5,6 -5,6l-21 0c-2,0 0,-1 0,-1l2 -2 0 -2 -2 0c-1,1 -3,3 -3,3l-3 4c-1,1 1,1 1,1l27 0c4,-3 6,-7 6,-7l0 -32c0,0 0,-3 -3,-3l-23 0c-3,0 -3,3 -3,3l0 23 3 0 0 -23 24 0 0 16c0,0 -4,0 -6,-3 0,0 1,-3 -4,-3l-7 0c0,0 -2,1 -2,2 0,1 -2,4 -2,4 0,0 -1,2 0,2 0,0 2,0 2,-1l2 -3c0,0 0,-1 1,-1l3 0c0,0 1,0 1,0 0,0 -4,3 -4,6l0 3 0 3c0,0 0,1 -1,1 -3,0 -9,0 -9,0 0,0 -2,1 0,2l11 0c1,0 1,-1 1,-1 0,0 1,-5 2,-3 0,0 2,3 4,6 0,0 0,1 2,1 0,0 0,0 0,-1l-4 -10 0 -1 2 -3c0,0 1,-1 1,0 2,2 7,2 7,2z"/>
   </g>
  </g>
 </g>
</svg>
