<?xml version="1.0" encoding="UTF-8"?>
<!DOCTYPE svg PUBLIC "-//W3C//DTD SVG 1.1//EN" "http://www.w3.org/Graphics/SVG/1.1/DTD/svg11.dtd">
<!-- Creator: CorelDRAW X6 -->
<svg xmlns="http://www.w3.org/2000/svg" xml:space="preserve" width="7.4098mm" height="9.521mm" version="1.1" style="shape-rendering:geometricPrecision; text-rendering:geometricPrecision; image-rendering:optimizeQuality; fill-rule:evenodd; clip-rule:evenodd"
viewBox="0 0 33 42"
 xmlns:xlink="http://www.w3.org/1999/xlink">
 <defs>
  <style type="text/css">
   <![CDATA[
    .fil0 {fill:#008DA9;fill-rule:nonzero}
   ]]>
  </style>
 </defs>
 <g id="Слой_x0020_1">
  <metadata id="CorelCorpID_0Corel-Layer"/>
  <g id="_547185040">
   <g>
    <path class="fil0" d="M32 34l-4 -5c-1,-1 -3,-1 -4,0l-2 2c-1,1 -2,1 -3,0l-8 -8c-1,-1 -1,-2 0,-3l2 -2c0,-1 1,-1 1,-2 0,-1 -1,-1 -1,-2l-5 -4c-1,-1 -2,-1 -3,0l-2 2c0,0 0,0 0,0 0,0 0,0 -1,0 -2,3 -3,7 -1,11 1,3 4,6 8,10 6,6 11,9 15,9 2,0 4,-1 5,-2 1,0 1,-1 1,-1 0,0 0,0 0,0l2 -2c1,-1 1,-2 0,-3zm-26 -23l0 0c0,-1 1,-1 1,0l5 4c0,1 0,1 0,1 0,0 0,0 0,1l-2 1 -5 -6 1 -1zm4 21l0 0c-4,-4 -6,-7 -8,-10 -1,-3 -1,-6 2,-9l5 6c-1,2 0,4 1,5l8 8c1,1 2,1 3,1 0,0 1,0 2,0l6 6c-2,1 -3,2 -5,2 -4,0 -9,-3 -14,-9zm21 4l0 0 -1 1 -6 -5 1 -2c1,0 1,0 1,0l5 5c0,0 0,1 0,1z"/>
   </g>
   <g>
    <path class="fil0" d="M17 15l-1 -1c0,-1 1,-2 1,-3 0,-1 -1,-3 -1,-4 -1,-1 -3,-1 -4,-1 -1,0 -2,0 -3,1l-1 -1c1,-1 2,-2 4,-2 2,0 3,1 5,2 1,2 1,3 1,5 0,2 0,3 -1,4z"/>
   </g>
   <g>
    <path class="fil0" d="M20 19l-1 -1c1,-2 2,-5 2,-7 0,-3 -1,-5 -2,-7 -2,-2 -4,-3 -7,-3 -3,0 -5,1 -7,3l-1 -1c2,-2 5,-3 8,-3 3,0 6,1 8,3 2,2 3,5 3,8 0,3 -1,6 -3,8z"/>
   </g>
  </g>
 </g>
</svg>
