<?xml version="1.0" encoding="UTF-8"?>
<!DOCTYPE svg PUBLIC "-//W3C//DTD SVG 1.1//EN" "http://www.w3.org/Graphics/SVG/1.1/DTD/svg11.dtd">
<!-- Creator: CorelDRAW X6 -->
<svg xmlns="http://www.w3.org/2000/svg" xml:space="preserve" width="6.4291mm" height="6.4246mm" version="1.1" style="shape-rendering:geometricPrecision; text-rendering:geometricPrecision; image-rendering:optimizeQuality; fill-rule:evenodd; clip-rule:evenodd"
viewBox="0 0 33 33"
 xmlns:xlink="http://www.w3.org/1999/xlink">
 <defs>
  <style type="text/css">
   <![CDATA[
    .str0 {stroke:#B6B4B4;stroke-width:0.38608}
    .fil0 {fill:none}
    .fil1 {fill:#B6B4B4}
   ]]>
  </style>
 </defs>
 <g id="Слой_x0020_1">
  <metadata id="CorelCorpID_0Corel-Layer"/>
  <g id="_547070040">
   <g>
    <path class="fil0 str0" d="M19 0c-7,0 -13,6 -13,13 0,7 6,13 13,13 8,0 13,-6 13,-13 0,-7 -5,-13 -13,-13z"/>
   </g>
   <g>
    <path class="fil0 str0" d="M19 4c-5,0 -9,4 -9,9 0,5 4,9 9,9 5,0 9,-4 9,-9 0,-5 -4,-9 -9,-9z"/>
   </g>
   <g>
    <path class="fil0 str0" d="M13 21l-2 -1c-1,-1 -2,-1 -3,0l-7 7c-1,1 -1,2 0,3l1 2c1,1 2,1 3,0l8 -8c1,-1 1,-2 0,-3z"/>
   </g>
   <g>
    <polygon class="fil0 str0" points="14,23 10,18 5,23 10,27 "/>
   </g>
  </g>
  <path class="fil1" d="M8 20l0 0c0,0 0,0 0,0zm5 4c2,2 4,2 6,2 8,0 13,-6 13,-13 0,-7 -5,-13 -13,-13 -7,0 -13,6 -13,13 0,3 1,5 2,7 1,2 3,3 5,4zm-2 -4c-1,-1 -2,-1 -3,0l2 -2 1 2zm2 1l-2 -1c0,0 0,0 0,0l2 1zm1 2l-1 1c1,-1 1,-2 0,-3l1 2zm5 -1c-5,0 -9,-4 -9,-9 0,-5 4,-9 9,-9 5,0 9,4 9,9 0,5 -4,9 -9,9z"/>
  <path class="fil1" d="M13 24c-2,-1 -4,-2 -5,-4l-3 3 5 4 3 -3z"/>
  <path class="fil1" d="M10 27l-5 -4 -4 4c-1,1 -1,2 0,3l1 2c1,1 2,1 3,0l5 -5z"/>
  <path class="fil1" d="M13 21c1,1 1,2 0,3l1 -1 -1 -2z"/>
  <path class="fil1" d="M8 20c1,-1 2,-1 3,0l-1 -2 -2 2z"/>
 </g>
</svg>
