<?xml version="1.0" encoding="UTF-8"?>
<!DOCTYPE svg PUBLIC "-//W3C//DTD SVG 1.1//EN" "http://www.w3.org/Graphics/SVG/1.1/DTD/svg11.dtd">
<!-- Creator: CorelDRAW X6 -->
<svg xmlns="http://www.w3.org/2000/svg" xml:space="preserve" width="5.2647mm" height="4.958mm" version="1.1" style="shape-rendering:geometricPrecision; text-rendering:geometricPrecision; image-rendering:optimizeQuality; fill-rule:evenodd; clip-rule:evenodd"
viewBox="0 0 23 22"
 xmlns:xlink="http://www.w3.org/1999/xlink">
 <defs>
  <style type="text/css">
   <![CDATA[
    .fil0 {fill:#008DA9}
   ]]>
  </style>
 </defs>
 <g id="Слой_x0020_1">
  <metadata id="CorelCorpID_0Corel-Layer"/>
  <g id="_547068864">
   <g>
    <path class="fil0" d="M10 0c0,0 0,1 0,1 -1,0 0,0 -1,0 -1,0 -1,2 -1,2 0,1 0,1 0,2 0,1 -1,1 -1,1 -1,0 -1,2 -1,2 0,1 0,1 1,1 1,2 2,3 2,3 0,0 0,1 0,1 0,0 0,2 -3,3 -4,0 -5,1 -5,2 -1,1 -1,4 -1,4l23 0c0,0 0,-3 -1,-4 -1,-1 -1,-2 -5,-2 -3,-1 -3,-3 -3,-3 0,0 0,-1 0,-1 0,0 1,-1 2,-3 0,0 1,0 1,-1 0,0 0,-2 -1,-2 0,0 -1,0 -1,-1 1,0 1,-1 0,-1 0,-1 1,-3 -1,-3 0,0 0,0 -1,0 0,0 0,-1 -1,-1l-2 0z"/>
   </g>
  </g>
 </g>
</svg>
